<?xml version="1.0" standalone="no"?>
<!DOCTYPE svg PUBLIC "-//W3C//DTD SVG 20010904//EN"
 "http://www.w3.org/TR/2001/REC-SVG-20010904/DTD/svg10.dtd">
<svg version="1.0" xmlns="http://www.w3.org/2000/svg"
 width="840.000000pt" height="880.000000pt" viewBox="0 0 840.000000 880.000000"
 preserveAspectRatio="xMidYMid meet">

<g transform="translate(0.000000,880.000000) scale(0.100000,-0.100000)"
fill="#000000" stroke="none">
<path d="M3895 8389 c-823 -69 -1562 -362 -2207 -877 -172 -137 -465 -430
-602 -602 -130 -162 -288 -397 -387 -575 -578 -1037 -658 -2310 -214 -3415
443 -1103 1340 -1948 2465 -2320 1050 -347 2223 -237 3185 299 326 182 618
403 891 675 398 399 685 834 892 1351 532 1336 303 2849 -604 3985 -140 174
-432 467 -604 604 -611 487 -1301 774 -2070 862 -155 18 -598 26 -745 13z
m1200 -1563 c178 -26 545 -124 545 -145 0 -3 -30 -15 -67 -25 -235 -67 -490
-198 -701 -360 -105 -80 -299 -273 -374 -371 -156 -205 -274 -438 -343 -680
-53 -185 -69 -303 -69 -525 0 -206 6 -265 45 -440 174 -770 814 -1385 1619
-1555 163 -34 279 -46 455 -46 l150 0 -40 -35 c-85 -73 -287 -199 -445 -278
-287 -142 -580 -226 -898 -256 -1032 -98 -2029 432 -2481 1320 -177 345 -254
669 -254 1055 1 411 102 787 307 1138 393 673 1069 1109 1879 1212 147 18 519
13 672 -9z"/>
</g>
</svg>
