<svg width="871" height="800" viewBox="0 0 871 800" fill="none" xmlns="http://www.w3.org/2000/svg">
<rect y="800" width="100" height="800" rx="50" transform="rotate(-90 0 800)" fill="#181818"/>
<path d="M50 100C22.3858 100 0 77.6142 0 50C0 22.3858 22.3858 0 50 0L600 0V100L50 100Z" fill="#181818"/>
<path d="M700 349H800V749C800 776.614 777.614 799 750 799C722.386 799 700 776.614 700 749V349Z" fill="#181818"/>
<rect width="100" height="800" rx="50" fill="#181818"/>
<rect x="799.975" width="100" height="700" transform="rotate(45 799.975 0)" fill="#181818"/>
<rect x="164" y="353.711" width="100" height="300" transform="rotate(-45 164 353.711)" fill="#181818"/>
</svg>
