<svg width="57" height="57" viewBox="0 0 57 57" fill="none" xmlns="http://www.w3.org/2000/svg">
<path d="M18.5 37C21.5376 37 24 34.5376 24 31.5C24 28.4624 21.5376 26 18.5 26C15.4624 26 13 28.4624 13 31.5C13 34.5376 15.4624 37 18.5 37Z" fill="#BDC3C7"/>
<path d="M18.5 38C14.916 38 12 35.084 12 31.5C12 27.916 14.916 25 18.5 25C22.084 25 25 27.916 25 31.5C25 35.084 22.084 38 18.5 38ZM18.5 27C16.019 27 14 29.019 14 31.5C14 33.981 16.019 36 18.5 36C20.981 36 23 33.981 23 31.5C23 29.019 20.981 27 18.5 27Z" fill="#BDC3C7"/>
<path d="M35.5 37C38.5376 37 41 34.5376 41 31.5C41 28.4624 38.5376 26 35.5 26C32.4624 26 30 28.4624 30 31.5C30 34.5376 32.4624 37 35.5 37Z" fill="#BDC3C7"/>
<path d="M35.5 38C31.916 38 29 35.084 29 31.5C29 27.916 31.916 25 35.5 25C39.084 25 42 27.916 42 31.5C42 35.084 39.084 38 35.5 38ZM35.5 27C33.019 27 31 29.019 31 31.5C31 33.981 33.019 36 35.5 36C37.981 36 40 33.981 40 31.5C40 29.019 37.981 27 35.5 27Z" fill="#BDC3C7"/>
<path d="M13 32C12.447 32 12 31.553 12 31C12 23.28 18.28 17 26 17C26.553 17 27 17.447 27 18C27 18.553 26.553 19 26 19C19.383 19 14 24.383 14 31C14 31.553 13.553 32 13 32Z" fill="#BDC3C7"/>
<path d="M30 32C29.447 32 29 31.553 29 31C29 23.28 35.28 17 43 17C43.553 17 44 17.447 44 18C44 18.553 43.553 19 43 19C36.383 19 31 24.383 31 31C31 31.553 30.553 32 30 32Z" fill="#BDC3C7"/>
</svg>
